<?xml version="1.0" encoding="UTF-8"?><svg xmlns="http://www.w3.org/2000/svg" xmlns:xlink="http://www.w3.org/1999/xlink" fill-opacity="1" color-rendering="auto" color-interpolation="auto" text-rendering="auto" stroke="black" stroke-linecap="square" width="1289" stroke-miterlimit="10" shape-rendering="auto" stroke-opacity="1" fill="black" stroke-dasharray="none" font-weight="normal" stroke-width="1" height="892" font-family="'Dialog'" font-style="normal" stroke-linejoin="miter" font-size="12px" stroke-dashoffset="0" image-rendering="auto">
  <!--Generated by ySVG 2.6-->
  <defs id="genericDefs"/>
  <g>
    <defs id="defs1">
      <clipPath clipPathUnits="userSpaceOnUse" id="clipPath1">
        <path d="M0 0 L1289 0 L1289 892 L0 892 L0 0 Z"/>
      </clipPath>
      <clipPath clipPathUnits="userSpaceOnUse" id="clipPath2">
        <path d="M-92 -150 L1197 -150 L1197 742 L-92 742 L-92 -150 Z"/>
      </clipPath>
      <clipPath clipPathUnits="userSpaceOnUse" id="clipPath3">
        <path d="M-96 -154 L1193 -154 L1193 738 L-96 738 L-96 -154 Z"/>
      </clipPath>
    </defs>
    <g fill="white" text-rendering="geometricPrecision" shape-rendering="geometricPrecision" transform="translate(92,150)" stroke="white">
      <rect x="-92" width="1289" height="892" y="-150" clip-path="url(#clipPath2)" stroke="none"/>
    </g>
    <g fill="yellow" text-rendering="geometricPrecision" shape-rendering="geometricPrecision" transform="matrix(1,0,0,1,92,150)" stroke="yellow">
      <rect x="380.4159" y="308" clip-path="url(#clipPath2)" width="139.1682" rx="4" ry="4" height="44" stroke="none"/>
    </g>
    <g font-size="16px" stroke-linecap="butt" transform="matrix(1,0,0,1,92,150)" text-rendering="geometricPrecision" font-family="sans-serif" shape-rendering="geometricPrecision" stroke-miterlimit="1.45">
      <text x="398.8633" xml:space="preserve" y="336.2852" clip-path="url(#clipPath2)" stroke="none">display:Exhibit</text>
      <rect x="380.4159" y="308" clip-path="url(#clipPath2)" fill="none" width="139.1682" rx="4" ry="4" height="44"/>
    </g>
    <g fill="yellow" text-rendering="geometricPrecision" shape-rendering="geometricPrecision" transform="matrix(1,0,0,1,92,150)" stroke="yellow">
      <rect x="920.4159" y="308" clip-path="url(#clipPath2)" width="139.1682" rx="4" ry="4" height="44" stroke="none"/>
    </g>
    <g font-size="16px" stroke-linecap="butt" transform="matrix(1,0,0,1,92,150)" text-rendering="geometricPrecision" font-family="sans-serif" shape-rendering="geometricPrecision" stroke-miterlimit="1.45">
      <text x="947.3086" xml:space="preserve" y="336.2852" clip-path="url(#clipPath2)" stroke="none">bot:Element</text>
      <rect x="920.4159" y="308" clip-path="url(#clipPath2)" fill="none" width="139.1682" rx="4" ry="4" height="44"/>
    </g>
    <g fill="yellow" text-rendering="geometricPrecision" shape-rendering="geometricPrecision" transform="matrix(1,0,0,1,92,150)" stroke="yellow">
      <rect x="650.4159" y="488" clip-path="url(#clipPath2)" width="139.1682" rx="4" ry="4" height="44" stroke="none"/>
    </g>
    <g font-size="16px" stroke-linecap="butt" transform="matrix(1,0,0,1,92,150)" text-rendering="geometricPrecision" font-family="sans-serif" shape-rendering="geometricPrecision" stroke-miterlimit="1.45">
      <text x="663.5273" xml:space="preserve" y="516.2852" clip-path="url(#clipPath2)" stroke="none">display:Element</text>
      <rect x="650.4159" y="488" clip-path="url(#clipPath2)" fill="none" width="139.1682" rx="4" ry="4" height="44"/>
    </g>
    <g fill="yellow" text-rendering="geometricPrecision" shape-rendering="geometricPrecision" transform="matrix(1,0,0,1,92,150)" stroke="yellow">
      <rect x="920.4159" y="128" clip-path="url(#clipPath2)" width="139.1682" rx="4" ry="4" height="44" stroke="none"/>
    </g>
    <g font-size="16px" stroke-linecap="butt" transform="matrix(1,0,0,1,92,150)" text-rendering="geometricPrecision" font-family="sans-serif" shape-rendering="geometricPrecision" stroke-miterlimit="1.45">
      <text x="953.9727" xml:space="preserve" y="156.2852" clip-path="url(#clipPath2)" stroke="none">bot:Space</text>
      <rect x="920.4159" y="128" clip-path="url(#clipPath2)" fill="none" width="139.1682" rx="4" ry="4" height="44"/>
    </g>
    <g fill="yellow" text-rendering="geometricPrecision" shape-rendering="geometricPrecision" transform="matrix(1,0,0,1,92,150)" stroke="yellow">
      <rect x="356.4159" y="128" clip-path="url(#clipPath2)" width="187.1682" rx="4" ry="4" height="44" stroke="none"/>
    </g>
    <g font-size="16px" stroke-linecap="butt" transform="matrix(1,0,0,1,92,150)" text-rendering="geometricPrecision" font-family="sans-serif" shape-rendering="geometricPrecision" stroke-miterlimit="1.45">
      <text x="365.5039" xml:space="preserve" y="156.2852" clip-path="url(#clipPath2)" stroke="none">display:ExhibitionSpace</text>
      <rect x="356.4159" y="128" clip-path="url(#clipPath2)" fill="none" width="187.1682" rx="4" ry="4" height="44"/>
    </g>
    <g fill="yellow" text-rendering="geometricPrecision" shape-rendering="geometricPrecision" transform="matrix(1,0,0,1,92,150)" stroke="yellow">
      <rect x="71.2659" y="488" clip-path="url(#clipPath2)" width="124.9682" rx="4" ry="4" height="44" stroke="none"/>
    </g>
    <g font-size="16px" stroke-linecap="butt" transform="matrix(1,0,0,1,92,150)" text-rendering="geometricPrecision" font-family="sans-serif" shape-rendering="geometricPrecision" stroke-miterlimit="1.45">
      <text x="80.3945" xml:space="preserve" y="516.2852" clip-path="url(#clipPath2)" stroke="none">display:Display</text>
      <rect x="71.2659" y="488" clip-path="url(#clipPath2)" fill="none" width="124.9682" rx="4" ry="4" height="44"/>
    </g>
    <g stroke-linecap="butt" transform="matrix(1,0,0,1,92,150)" fill="navy" text-rendering="geometricPrecision" shape-rendering="geometricPrecision" stroke="navy" stroke-miterlimit="1.45">
      <path fill="none" d="M405.8534 306.1011 L283.75 240 L133.75 240 L133.75 318.6888 L369.3769 318.6888" clip-path="url(#clipPath2)"/>
      <path d="M412.8887 309.9096 C411.837 311.8524 409.4095 312.5747 407.4668 311.523 C405.524 310.4713 404.8017 308.0439 405.8534 306.1011 C406.9051 304.1584 409.3326 303.436 411.2753 304.4877 C413.218 305.5394 413.9404 307.9669 412.8887 309.9096 Z" clip-path="url(#clipPath2)" stroke="none"/>
      <path d="M380.3769 318.6888 L368.3769 312.6888 L368.3769 324.6888 Z" clip-path="url(#clipPath2)" stroke="none"/>
      <rect x="11.4392" y="227.316" clip-path="url(#clipPath2)" fill="white" width="256.5781" height="23.6016" stroke="none"/>
      <text x="13.4392" font-size="16px" y="245.4019" clip-path="url(#clipPath2)" font-family="sans-serif" stroke="none" xml:space="preserve">display:hasTopologicalRelationWith</text>
      <path fill="none" stroke-dasharray="0,4" d="M909.4236 330 L530.5701 330" stroke-dashoffset="2" clip-path="url(#clipPath2)" stroke-linecap="round"/>
      <path stroke-dasharray="0,4" d="M920.4236 330 L908.4236 324 L908.4236 336 Z" stroke-dashoffset="2" clip-path="url(#clipPath2)" stroke-linecap="round" stroke="none"/>
      <path stroke-dasharray="0,4" d="M519.5701 330 L531.5701 336 L531.5701 324 Z" stroke-dashoffset="2" clip-path="url(#clipPath2)" stroke-linecap="round" stroke="none"/>
    </g>
    <g stroke-linecap="round" transform="matrix(1,0,0,1,92,150)" stroke-dashoffset="2" fill="white" text-rendering="geometricPrecision" shape-rendering="geometricPrecision" stroke-dasharray="0,4" stroke="white" stroke-miterlimit="1.45">
      <rect x="591.7109" width="256.5781" height="23.6016" y="318.1992" clip-path="url(#clipPath2)" stroke="none"/>
    </g>
    <g stroke-linecap="butt" font-size="16px" transform="matrix(1,0,0,1,92,150)" fill="navy" text-rendering="geometricPrecision" font-family="sans-serif" shape-rendering="geometricPrecision" stroke="navy" stroke-miterlimit="1.45">
      <text x="593.7109" xml:space="preserve" y="336.2852" clip-path="url(#clipPath2)" stroke="none">display:hasTopologicalRelationWith</text>
    </g>
    <g text-rendering="geometricPrecision" stroke-miterlimit="1.45" shape-rendering="geometricPrecision" transform="matrix(1,0,0,1,92,150)" stroke-linecap="butt">
      <path fill="none" d="M489.6483 356.4322 L686.989 487.9926" clip-path="url(#clipPath2)"/>
      <path d="M482.9919 351.9946 L490.2031 362.8113 L490.4804 356.9869 L495.7501 354.4908 Z" clip-path="url(#clipPath2)" stroke="none"/>
      <rect x="527.4258" y="408.1992" clip-path="url(#clipPath2)" fill="white" width="115.1484" height="23.6016" stroke="none"/>
      <text x="529.4258" font-size="16px" y="426.2852" clip-path="url(#clipPath2)" font-family="sans-serif" stroke="none" xml:space="preserve">owl:subClassOf</text>
      <path fill="none" d="M789.5764 510 L990 510 L990 360.0166" clip-path="url(#clipPath2)"/>
      <path d="M990 352.0166 L985 364.0166 L990 361.0166 L995 364.0166 Z" clip-path="url(#clipPath2)" stroke="none"/>
      <rect x="821.6514" y="498.1992" clip-path="url(#clipPath2)" fill="white" width="145.4062" height="23.6016" stroke="none"/>
      <text x="823.6514" font-size="16px" y="516.2852" clip-path="url(#clipPath2)" font-family="sans-serif" stroke="none" xml:space="preserve">owl:equivalentClass</text>
    </g>
    <g stroke-linecap="round" transform="matrix(1,0,0,1,92,150)" stroke-dashoffset="2" fill="navy" text-rendering="geometricPrecision" shape-rendering="geometricPrecision" stroke-dasharray="0,4" stroke="navy" stroke-miterlimit="1.45">
      <path fill="none" d="M720 476.9833 L720 405.0169 L720 339.0169" clip-path="url(#clipPath2)"/>
      <path d="M720 487.9833 L726 475.9833 L714 475.9833 Z" clip-path="url(#clipPath2)" stroke="none"/>
      <path fill="none" stroke-dasharray="none" d="M990 123.998 L990 90 L1110 90 L1110 120 L1070.2516 129.9371" stroke-dashoffset="0" clip-path="url(#clipPath2)" stroke-linecap="butt"/>
      <path stroke-dasharray="none" d="M990 131.998 C987.7908 131.998 986 130.2072 986 127.998 C986 125.7889 987.7908 123.998 990 123.998 C992.2092 123.998 994 125.7889 994 127.998 C994 130.2072 992.2092 131.998 990 131.998 Z" stroke-dashoffset="0" clip-path="url(#clipPath2)" stroke-linecap="butt" stroke="none"/>
      <path stroke-dasharray="none" d="M1059.5801 132.605 L1072.677 135.5154 L1069.7666 123.8737 Z" stroke-dashoffset="0" clip-path="url(#clipPath2)" stroke-linecap="butt" stroke="none"/>
    </g>
    <g stroke-linecap="butt" transform="matrix(1,0,0,1,92,150)" fill="white" text-rendering="geometricPrecision" shape-rendering="geometricPrecision" stroke="white" stroke-miterlimit="1.45">
      <rect x="999.0742" width="101.8516" height="23.6016" y="78.1992" clip-path="url(#clipPath2)" stroke="none"/>
    </g>
    <g stroke-linecap="butt" font-size="16px" transform="matrix(1,0,0,1,92,150)" fill="navy" text-rendering="geometricPrecision" font-family="sans-serif" shape-rendering="geometricPrecision" stroke="navy" stroke-miterlimit="1.45">
      <text x="1001.0742" xml:space="preserve" y="96.2852" clip-path="url(#clipPath2)" stroke="none">bot:hasSpace</text>
      <path fill="none" d="M990 176.0166 L990 296.9764" clip-path="url(#clipPath2)"/>
      <path d="M990 168.0166 C992.2092 168.0166 994 169.8075 994 172.0166 C994 174.2257 992.2092 176.0166 990 176.0166 C987.7908 176.0166 986 174.2257 986 172.0166 C986 169.8075 987.7908 168.0166 990 168.0166 Z" stroke="none" clip-path="url(#clipPath2)"/>
      <path d="M990 307.9764 L996 295.9764 L984 295.9764 Z" stroke="none" clip-path="url(#clipPath2)"/>
    </g>
    <g stroke-linecap="butt" transform="matrix(1,0,0,1,92,150)" fill="white" text-rendering="geometricPrecision" shape-rendering="geometricPrecision" stroke="white" stroke-miterlimit="1.45">
      <rect x="932.4102" width="115.1797" height="23.6016" y="228.1992" clip-path="url(#clipPath2)" stroke="none"/>
    </g>
    <g stroke-linecap="butt" font-size="16px" transform="matrix(1,0,0,1,92,150)" fill="navy" text-rendering="geometricPrecision" font-family="sans-serif" shape-rendering="geometricPrecision" stroke="navy" stroke-miterlimit="1.45">
      <text x="934.4102" xml:space="preserve" y="246.2852" clip-path="url(#clipPath2)" stroke="none">bot:hasElement</text>
    </g>
    <g stroke-linecap="round" transform="matrix(1,0,0,1,92,150)" stroke-dashoffset="2" fill="navy" text-rendering="geometricPrecision" shape-rendering="geometricPrecision" stroke-dasharray="0,4" stroke="navy" stroke-miterlimit="1.45">
      <path fill="none" d="M920.2543 173.2486 L526.3753 304.5416" clip-path="url(#clipPath2)"/>
      <path d="M927.8438 170.7187 C928.5424 172.8145 927.4097 175.0798 925.314 175.7784 C923.2182 176.477 920.9529 175.3443 920.2543 173.2486 C919.5557 171.1528 920.6884 168.8875 922.7842 168.1889 C924.8799 167.4903 927.1452 168.623 927.8438 170.7187 Z" clip-path="url(#clipPath2)" stroke="none"/>
      <path d="M515.9398 308.0201 L529.2213 309.9174 L525.4266 298.5332 Z" clip-path="url(#clipPath2)" stroke="none"/>
      <rect x="653.9648" y="228.1992" clip-path="url(#clipPath2)" fill="white" width="132.0703" height="23.6016" stroke="none"/>
    </g>
    <g stroke-linecap="butt" font-size="16px" transform="matrix(1,0,0,1,92,150)" fill="navy" text-rendering="geometricPrecision" font-family="sans-serif" shape-rendering="geometricPrecision" stroke="navy" stroke-miterlimit="1.45">
      <text x="655.9648" xml:space="preserve" y="246.2852" clip-path="url(#clipPath2)" stroke="none">display:hasExhibit</text>
    </g>
    <g stroke-linecap="round" transform="matrix(1,0,0,1,92,150)" stroke-dashoffset="2" fill="navy" text-rendering="geometricPrecision" shape-rendering="geometricPrecision" stroke-dasharray="0,4" stroke="navy" stroke-miterlimit="1.45">
      <path fill="none" d="M1063.5801 150 L1110 150 L1110 570 L720 570 L720 543.002" clip-path="url(#clipPath2)"/>
      <path d="M1055.5801 150 C1055.5801 147.7909 1057.371 146 1059.5801 146 C1061.7892 146 1063.5801 147.7909 1063.5801 150 C1063.5801 152.2091 1061.7892 154 1059.5801 154 C1057.371 154 1055.5801 152.2091 1055.5801 150 Z" clip-path="url(#clipPath2)" stroke="none"/>
      <path d="M720 532.002 L714 544.002 L726 544.002 Z" clip-path="url(#clipPath2)" stroke="none"/>
      <rect x="1038.3572" y="410.2144" clip-path="url(#clipPath2)" fill="white" width="142.7422" height="62.8047" stroke="none"/>
    </g>
    <g stroke-linecap="butt" font-size="16px" transform="matrix(1,0,0,1,92,150)" fill="navy" text-rendering="geometricPrecision" font-family="sans-serif" shape-rendering="geometricPrecision" stroke="navy" stroke-miterlimit="1.45">
      <text x="1054.1384" xml:space="preserve" y="428.3004" clip-path="url(#clipPath2)" stroke="none">bot:hasElement</text>
      <text x="1040.3572" xml:space="preserve" y="447.9019" clip-path="url(#clipPath2)" stroke="none">display:hasElement</text>
      <text x="1045.6931" xml:space="preserve" y="467.5035" clip-path="url(#clipPath2)" stroke="none">display:hasExhibit</text>
    </g>
    <g text-rendering="geometricPrecision" stroke-miterlimit="1.45" shape-rendering="geometricPrecision" transform="matrix(1,0,0,1,92,150)" stroke-linecap="butt">
      <path fill="none" d="M543.5706 150 L912.4362 150" clip-path="url(#clipPath2)"/>
      <path d="M920.4362 150 L908.4362 145 L911.4362 150 L908.4362 155 Z" clip-path="url(#clipPath2)" stroke="none"/>
      <rect x="674.4258" y="138.1992" clip-path="url(#clipPath2)" fill="white" width="115.1484" height="23.6016" stroke="none"/>
      <text x="676.4258" font-size="16px" y="156.2852" clip-path="url(#clipPath2)" font-family="sans-serif" stroke="none" xml:space="preserve">owl:subClassOf</text>
      <path fill="none" d="M450 176.0166 L450 296.9764" clip-path="url(#clipPath2)" stroke="navy"/>
      <path fill="navy" d="M450 168.0166 C452.2091 168.0166 454 169.8075 454 172.0166 C454 174.2257 452.2091 176.0166 450 176.0166 C447.7909 176.0166 446 174.2257 446 172.0166 C446 169.8075 447.7909 168.0166 450 168.0166 Z" clip-path="url(#clipPath2)" stroke="none"/>
      <path fill="navy" d="M450 307.9764 L456 295.9764 L444 295.9764 Z" clip-path="url(#clipPath2)" stroke="none"/>
      <rect x="383.9648" y="228.1992" clip-path="url(#clipPath2)" fill="white" width="132.0703" height="23.6016" stroke="none"/>
    </g>
    <g stroke-linecap="butt" font-size="16px" transform="matrix(1,0,0,1,92,150)" fill="navy" text-rendering="geometricPrecision" font-family="sans-serif" shape-rendering="geometricPrecision" stroke="navy" stroke-miterlimit="1.45">
      <text x="385.9648" xml:space="preserve" y="246.2852" clip-path="url(#clipPath2)" stroke="none">display:hasExhibit</text>
      <path fill="none" d="M450 356.0166 L450 510 L207.2511 510" clip-path="url(#clipPath2)"/>
      <path d="M450 348.0166 C452.2091 348.0166 454 349.8075 454 352.0166 C454 354.2257 452.2091 356.0166 450 356.0166 C447.7909 356.0166 446 354.2257 446 352.0166 C446 349.8075 447.7909 348.0166 450 348.0166 Z" stroke="none" clip-path="url(#clipPath2)"/>
      <path d="M196.2511 510 L208.2511 516 L208.2511 504 Z" stroke="none" clip-path="url(#clipPath2)"/>
    </g>
    <g stroke-linecap="butt" transform="matrix(1,0,0,1,92,150)" fill="white" text-rendering="geometricPrecision" shape-rendering="geometricPrecision" stroke="white" stroke-miterlimit="1.45">
      <rect x="255.8592" width="143.6406" height="23.6016" y="498.1992" clip-path="url(#clipPath2)" stroke="none"/>
    </g>
    <g stroke-linecap="butt" font-size="16px" transform="matrix(1,0,0,1,92,150)" fill="navy" text-rendering="geometricPrecision" font-family="sans-serif" shape-rendering="geometricPrecision" stroke="navy" stroke-miterlimit="1.45">
      <text x="257.8593" xml:space="preserve" y="516.2852" clip-path="url(#clipPath2)" stroke="none">display:isIncludedIn</text>
      <path fill="none" d="M133.75 484.0311 L133.75 338.6006 L369.3912 338.6006" clip-path="url(#clipPath2)"/>
      <path d="M133.75 492.0311 C131.5409 492.0311 129.75 490.2402 129.75 488.0311 C129.75 485.8219 131.5409 484.0311 133.75 484.0311 C135.9591 484.0311 137.75 485.8219 137.75 488.0311 C137.75 490.2402 135.9591 492.0311 133.75 492.0311 Z" stroke="none" clip-path="url(#clipPath2)"/>
      <path d="M380.3912 338.6006 L368.3912 332.6006 L368.3912 344.6006 Z" stroke="none" clip-path="url(#clipPath2)"/>
    </g>
    <g stroke-linecap="butt" transform="matrix(1,0,0,1,92,150)" fill="white" text-rendering="geometricPrecision" shape-rendering="geometricPrecision" stroke="white" stroke-miterlimit="1.45">
      <rect x="194.0439" width="116.9531" height="23.6016" y="326.7998" clip-path="url(#clipPath2)" stroke="none"/>
    </g>
    <g stroke-linecap="butt" font-size="16px" transform="matrix(1,0,0,1,92,150)" fill="navy" text-rendering="geometricPrecision" font-family="sans-serif" shape-rendering="geometricPrecision" stroke="navy" stroke-miterlimit="1.45">
      <text x="196.0439" xml:space="preserve" y="344.8857" clip-path="url(#clipPath2)" stroke="none">display:includes</text>
    </g>
    <g text-rendering="geometricPrecision" stroke-miterlimit="1.45" shape-rendering="geometricPrecision" transform="matrix(1,0,0,1,92,150)" stroke-linecap="butt">
      <path fill="none" d="M172.3933 488.0054 L404.3816 355.9646" clip-path="url(#clipPath2)"/>
      <path d="M411.3343 352.0074 L398.432 353.5978 L403.5125 356.4593 L403.3785 362.2887 Z" clip-path="url(#clipPath2)" stroke="none"/>
      <rect x="236.0781" y="408.1992" clip-path="url(#clipPath2)" fill="white" width="111.5938" height="23.6016" stroke="none"/>
      <text x="238.0781" font-size="16px" y="426.2852" clip-path="url(#clipPath2)" font-family="sans-serif" stroke="none" xml:space="preserve">owl:subclassOf</text>
    </g>
    <g fill="rgb(210,210,210)" text-rendering="geometricPrecision" shape-rendering="geometricPrecision" transform="matrix(1,0,0,1,92,150) translate(4,4)" stroke="rgb(210,210,210)">
      <rect x="71.2659" width="407.2847" height="125.4624" y="597.2688" clip-path="url(#clipPath3)" stroke="none"/>
    </g>
    <g fill="white" text-rendering="geometricPrecision" shape-rendering="geometricPrecision" transform="matrix(1,0,0,1,92,150)" stroke="white">
      <rect x="71.2659" width="407.2847" height="125.4624" y="597.2688" clip-path="url(#clipPath2)" stroke="none"/>
      <rect x="71.2659" y="597.2688" clip-path="url(#clipPath2)" fill="rgb(183,182,158)" width="407.2847" height="22.3765" stroke="none"/>
    </g>
    <g font-size="15px" stroke-linecap="butt" transform="matrix(1,0,0,1,92,150)" text-rendering="geometricPrecision" font-family="sans-serif" shape-rendering="geometricPrecision" font-weight="bold" stroke-miterlimit="1.45">
      <text x="405.6741" xml:space="preserve" y="614.3494" clip-path="url(#clipPath2)" stroke="none">Prefixes   </text>
      <rect fill="none" x="71.2659" width="407.2847" height="125.4624" y="597.2688" clip-path="url(#clipPath2)"/>
      <text x="106.806" xml:space="preserve" font-size="16px" y="652.7312" clip-path="url(#clipPath2)" stroke="none">:</text>
      <text x="106.806" xml:space="preserve" font-size="16px" y="672.3328" clip-path="url(#clipPath2)" stroke="none">owl:</text>
      <text x="106.806" xml:space="preserve" font-size="16px" y="691.9343" clip-path="url(#clipPath2)" stroke="none">rdfs:</text>
      <text x="157.7543" font-size="16px" y="652.7312" clip-path="url(#clipPath2)" stroke="none" font-weight="normal" xml:space="preserve">http://www.example.com/</text>
      <text x="157.7543" font-size="16px" y="672.3328" clip-path="url(#clipPath2)" stroke="none" font-weight="normal" xml:space="preserve">http://www.w3.org/2002/07/owl#</text>
      <text x="157.7543" font-size="16px" y="691.9343" clip-path="url(#clipPath2)" stroke="none" font-weight="normal" xml:space="preserve">http://www.w3.org/2000/01/rdf-schema#</text>
    </g>
    <g fill="rgb(235,235,235)" text-rendering="geometricPrecision" shape-rendering="geometricPrecision" transform="matrix(1,0,0,1,92,150)" stroke="rgb(235,235,235)">
      <rect x="-76.2732" width="420.0464" height="22.3765" y="-134.0398" clip-path="url(#clipPath2)" stroke="none"/>
    </g>
    <g font-size="15px" stroke-linecap="butt" transform="matrix(1,0,0,1,92,150)" text-rendering="geometricPrecision" font-family="sans-serif" shape-rendering="geometricPrecision" stroke-miterlimit="1.45">
      <text x="200.0276" xml:space="preserve" y="-116.9592" clip-path="url(#clipPath2)" stroke="none">Topological relations </text>
      <rect x="-76.2732" y="-134.0398" clip-path="url(#clipPath2)" fill="none" width="420.0464" stroke-dasharray="6,2" rx="4" ry="4" height="225.2671"/>
      <path fill="none" d="M133.8929 91.2146 L134.0581 221.5022" clip-path="url(#clipPath2)"/>
      <path d="M134.0683 229.5022 L139.053 217.4958 L134.0568 220.5022 L129.053 217.5085 Z" stroke="none" clip-path="url(#clipPath2)"/>
    </g>
    <g stroke-linecap="butt" transform="matrix(1,0,0,1,92,150)" fill="white" text-rendering="geometricPrecision" shape-rendering="geometricPrecision" stroke="white" stroke-miterlimit="1.45">
      <rect x="66.1817" width="135.6094" height="23.6016" y="153.1264" clip-path="url(#clipPath2)" stroke="none"/>
    </g>
    <g font-size="16px" stroke-linecap="butt" transform="matrix(1,0,0,1,92,150)" text-rendering="geometricPrecision" font-family="sans-serif" shape-rendering="geometricPrecision" stroke-miterlimit="1.45">
      <text x="68.1817" xml:space="preserve" y="171.2124" clip-path="url(#clipPath2)" stroke="none">owl:subPropertyOf</text>
    </g>
  </g>
</svg>
